<svg width="2615" height="1050" viewBox="0 0 2615 1050" fill="none" xmlns="http://www.w3.org/2000/svg">
<g clip-path="url(#clip0)">
<path d="M197.918 430.4L168.254 598.592H269.054L263.294 632H123.902L159.326 430.4H197.918ZM417.849 470.72C435.321 470.72 452.025 472.64 467.961 476.48L440.601 632H404.313L407.769 611.552C394.521 627.104 378.393 634.88 359.385 634.88C344.217 634.88 332.601 630.08 324.537 620.48C316.473 610.688 312.441 596.48 312.441 577.856C312.441 545.024 321.945 519.008 340.953 499.808C359.961 480.416 385.593 470.72 417.849 470.72ZM376.665 602.048C388.377 602.048 397.401 598.4 403.737 591.104C410.265 583.616 415.065 571.04 418.137 553.376L426.777 504.128C422.169 503.36 416.985 502.976 411.225 502.976C391.641 502.976 376.665 509.024 366.297 521.12C355.929 533.216 350.745 549.92 350.745 571.232C350.745 582.56 352.761 590.528 356.793 595.136C360.825 599.744 367.449 602.048 376.665 602.048ZM495.508 622.496L501.268 589.088C519.508 597.344 537.748 601.472 555.988 601.472C579.028 601.472 590.548 596.192 590.548 585.632C590.548 581.024 587.86 577.376 582.484 574.688C577.108 571.808 570.484 569.6 562.612 568.064C554.932 566.336 547.252 564.32 539.572 562.016C531.892 559.52 525.364 555.392 519.988 549.632C514.612 543.68 511.924 536 511.924 526.592C511.924 510.464 518.836 497.12 532.66 486.56C546.676 476 564.82 470.72 587.092 470.72C604.948 470.72 622.804 474.176 640.66 481.088L634.612 515.072C617.716 507.776 600.628 504.128 583.348 504.128C561.268 504.128 550.228 509.6 550.228 520.544C550.228 525.536 552.916 529.472 558.292 532.352C563.668 535.232 570.196 537.536 577.876 539.264C585.748 540.8 593.524 542.72 601.204 545.024C609.076 547.328 615.7 551.456 621.076 557.408C626.452 563.36 629.14 571.04 629.14 580.448C629.14 596.576 622.132 609.728 608.116 619.904C594.1 629.888 575.668 634.88 552.82 634.88C531.316 634.88 512.212 630.752 495.508 622.496ZM791.758 470.72C805.966 470.72 816.334 475.136 822.862 483.968C829.582 492.608 831.502 505.088 828.622 521.408L809.038 632H772.75L791.182 527.456C792.718 518.816 792.046 512.384 789.166 508.16C786.286 503.936 780.814 501.824 772.75 501.824C765.838 501.824 759.022 503.744 752.302 507.584C745.774 511.424 737.998 517.952 728.974 527.168L710.542 632H673.966L711.406 418.88H747.982L733.87 498.944C751.534 480.128 770.83 470.72 791.758 470.72ZM970.505 470.72C987.977 470.72 1004.68 472.64 1020.62 476.48L993.257 632H956.969L960.425 611.552C947.177 627.104 931.049 634.88 912.041 634.88C896.873 634.88 885.257 630.08 877.193 620.48C869.129 610.688 865.097 596.48 865.097 577.856C865.097 545.024 874.601 519.008 893.609 499.808C912.617 480.416 938.249 470.72 970.505 470.72ZM929.321 602.048C941.033 602.048 950.057 598.4 956.393 591.104C962.921 583.616 967.721 571.04 970.793 553.376L979.433 504.128C974.825 503.36 969.641 502.976 963.881 502.976C944.297 502.976 929.321 509.024 918.953 521.12C908.585 533.216 903.401 549.92 903.401 571.232C903.401 582.56 905.417 590.528 909.449 595.136C913.481 599.744 920.105 602.048 929.321 602.048ZM1048.16 622.496L1053.92 589.088C1072.16 597.344 1090.4 601.472 1108.64 601.472C1131.68 601.472 1143.2 596.192 1143.2 585.632C1143.2 581.024 1140.52 577.376 1135.14 574.688C1129.76 571.808 1123.14 569.6 1115.27 568.064C1107.59 566.336 1099.91 564.32 1092.23 562.016C1084.55 559.52 1078.02 555.392 1072.64 549.632C1067.27 543.68 1064.58 536 1064.58 526.592C1064.58 510.464 1071.49 497.12 1085.32 486.56C1099.33 476 1117.48 470.72 1139.75 470.72C1157.6 470.72 1175.46 474.176 1193.32 481.088L1187.27 515.072C1170.37 507.776 1153.28 504.128 1136 504.128C1113.92 504.128 1102.88 509.6 1102.88 520.544C1102.88 525.536 1105.57 529.472 1110.95 532.352C1116.32 535.232 1122.85 537.536 1130.53 539.264C1138.4 540.8 1146.18 542.72 1153.86 545.024C1161.73 547.328 1168.36 551.456 1173.73 557.408C1179.11 563.36 1181.8 571.04 1181.8 580.448C1181.8 596.576 1174.79 609.728 1160.77 619.904C1146.76 629.888 1128.32 634.88 1105.48 634.88C1083.97 634.88 1064.87 630.752 1048.16 622.496Z" fill="#1E86E6"/>
<path d="M1394.24 476.768C1394.24 493.856 1389.15 508.736 1378.97 521.408C1368.8 533.888 1354.97 542.336 1337.5 546.752L1367.45 632H1323.1L1298.91 549.92H1278.17L1263.77 632H1225.47L1260.89 430.4H1337.79C1375.42 430.4 1394.24 445.856 1394.24 476.768ZM1284.22 516.512H1318.49C1321.95 516.512 1325.41 516.128 1328.86 515.36C1332.32 514.4 1335.97 512.96 1339.81 511.04C1343.84 508.928 1347.1 505.664 1349.6 501.248C1352.09 496.64 1353.34 491.168 1353.34 484.832C1353.34 480.224 1352.67 476.48 1351.33 473.6C1350.17 470.528 1348.25 468.32 1345.57 466.976C1342.88 465.632 1340.19 464.768 1337.5 464.384C1335.01 464 1331.74 463.808 1327.71 463.808H1293.44L1284.22 516.512ZM1492.63 572.672C1479 572.672 1466.91 570.56 1456.35 566.336V568.352C1456.35 581.024 1458.94 589.76 1464.12 594.56C1469.31 599.36 1478.23 601.76 1490.91 601.76C1510.11 601.76 1529.02 597.248 1547.64 588.224L1541.88 620.768C1522.49 630.176 1501.85 634.88 1479.96 634.88C1459.8 634.88 1444.44 629.888 1433.88 619.904C1423.32 609.728 1418.04 594.848 1418.04 575.264C1418.04 545.888 1427.35 521.12 1445.98 500.96C1464.79 480.8 1488.12 470.72 1515.96 470.72C1533.43 470.72 1546.78 474.656 1555.99 482.528C1565.4 490.4 1570.11 501.344 1570.11 515.36C1570.11 533.024 1563.1 547.04 1549.08 557.408C1535.26 567.584 1516.44 572.672 1492.63 572.672ZM1509.05 502.112C1497.15 502.112 1487.07 505.376 1478.81 511.904C1470.55 518.432 1464.51 527.552 1460.67 539.264C1471.61 543.488 1483.42 545.6 1496.09 545.6C1520.47 545.6 1532.67 537.344 1532.67 520.832C1532.67 508.352 1524.79 502.112 1509.05 502.112ZM1750.87 534.944H1714C1716.12 524 1715.16 516.032 1711.12 511.04C1707.28 506.048 1700.37 503.552 1690.39 503.552C1674.84 503.552 1662.74 509.408 1654.1 521.12C1645.65 532.832 1641.43 548.576 1641.43 568.352C1641.43 580.64 1643.83 589.28 1648.63 594.272C1653.62 599.072 1662.26 601.472 1674.55 601.472C1693.56 601.472 1712.85 596 1732.44 585.056L1726.1 619.04C1707.28 629.6 1687.12 634.88 1665.62 634.88C1645.08 634.88 1629.43 629.792 1618.68 619.616C1608.12 609.44 1602.84 594.368 1602.84 574.4C1602.84 545.408 1611.67 520.928 1629.33 500.96C1647.19 480.8 1669.36 470.72 1695.86 470.72C1716.4 470.72 1731.57 476.576 1741.36 488.288C1751.16 499.808 1754.32 515.36 1750.87 534.944ZM1859.92 390.944H1902.25L1894.19 436.16H1851.85L1859.92 390.944ZM1893.04 601.472C1904.37 601.472 1916.27 598.208 1928.75 591.68L1922.99 624.512C1908.78 631.424 1894.19 634.88 1879.21 634.88C1860.4 634.88 1846.96 629.216 1838.89 617.888C1831.02 606.56 1829.01 590.24 1832.85 568.928L1843.79 505.856H1795.12L1800.88 473.6H1886.13L1869.71 566.624C1865.49 589.856 1873.26 601.472 1893.04 601.472ZM2071.5 470.72C2086.86 470.72 2098.67 475.616 2106.92 485.408C2115.18 495.008 2119.31 508.736 2119.31 526.592C2119.31 556.928 2111.91 582.56 2097.13 603.488C2082.35 624.416 2064.2 634.88 2042.7 634.88C2023.11 634.88 2009.58 626.912 2002.09 610.976L1988.55 686.72H1952.27L1989.71 473.6H2018.79L2019.08 499.808C2032.52 480.416 2049.99 470.72 2071.5 470.72ZM2037.23 602.048C2050.86 602.048 2061.51 595.808 2069.19 583.328C2077.07 570.848 2081 553.568 2081 531.488C2081 521.504 2078.89 514.4 2074.67 510.176C2070.44 505.76 2063.72 503.552 2054.51 503.552C2040.49 503.552 2029.55 509.792 2021.67 522.272C2013.99 534.56 2010.15 551.84 2010.15 574.112C2010.15 583.904 2012.27 591.008 2016.49 595.424C2020.91 599.84 2027.82 602.048 2037.23 602.048ZM2229.51 572.672C2215.88 572.672 2203.78 570.56 2193.22 566.336V568.352C2193.22 581.024 2195.81 589.76 2201 594.56C2206.18 599.36 2215.11 601.76 2227.78 601.76C2246.98 601.76 2265.89 597.248 2284.52 588.224L2278.76 620.768C2259.36 630.176 2238.72 634.88 2216.84 634.88C2196.68 634.88 2181.32 629.888 2170.76 619.904C2160.2 609.728 2154.92 594.848 2154.92 575.264C2154.92 545.888 2164.23 521.12 2182.85 500.96C2201.67 480.8 2225 470.72 2252.84 470.72C2270.31 470.72 2283.65 474.656 2292.87 482.528C2302.28 490.4 2306.98 501.344 2306.98 515.36C2306.98 533.024 2299.97 547.04 2285.96 557.408C2272.13 567.584 2253.32 572.672 2229.51 572.672ZM2245.92 502.112C2234.02 502.112 2223.94 505.376 2215.68 511.904C2207.43 518.432 2201.38 527.552 2197.54 539.264C2208.48 543.488 2220.29 545.6 2232.96 545.6C2257.35 545.6 2269.54 537.344 2269.54 520.832C2269.54 508.352 2261.67 502.112 2245.92 502.112ZM2337.7 622.496L2343.46 589.088C2361.7 597.344 2379.94 601.472 2398.18 601.472C2421.22 601.472 2432.74 596.192 2432.74 585.632C2432.74 581.024 2430.05 577.376 2424.67 574.688C2419.3 571.808 2412.67 569.6 2404.8 568.064C2397.12 566.336 2389.44 564.32 2381.76 562.016C2374.08 559.52 2367.55 555.392 2362.18 549.632C2356.8 543.68 2354.11 536 2354.11 526.592C2354.11 510.464 2361.02 497.12 2374.85 486.56C2388.86 476 2407.01 470.72 2429.28 470.72C2447.14 470.72 2464.99 474.176 2482.85 481.088L2476.8 515.072C2459.9 507.776 2442.82 504.128 2425.54 504.128C2403.46 504.128 2392.42 509.6 2392.42 520.544C2392.42 525.536 2395.1 529.472 2400.48 532.352C2405.86 535.232 2412.38 537.536 2420.06 539.264C2427.94 540.8 2435.71 542.72 2443.39 545.024C2451.26 547.328 2457.89 551.456 2463.26 557.408C2468.64 563.36 2471.33 571.04 2471.33 580.448C2471.33 596.576 2464.32 609.728 2450.3 619.904C2436.29 629.888 2417.86 634.88 2395.01 634.88C2373.5 634.88 2354.4 630.752 2337.7 622.496Z" fill="#FF0000"/>
</g>
<defs>
<clipPath id="clip0">
<rect width="2615" height="1050" fill="white"/>
</clipPath>
</defs>
</svg>
